<svg width="46" height="48" viewBox="0 0 46 48" fill="none" xmlns="http://www.w3.org/2000/svg">
<path fill-rule="evenodd" clip-rule="evenodd" d="M4.51081 0.0243125C8.62947 0.671626 12.9377 2.61695 16.1868 5.23724C18.3405 4.56159 20.6499 4.1962 23.0477 4.1962C25.4617 4.1962 27.786 4.5665 29.952 5.25081C33.2786 2.67461 37.3875 0.656852 41.5635 0.0273342C42.4525 -0.103761 43.3771 0.346206 43.783 1.15916C45.4121 5.01385 45.4675 9.61024 44.4655 13.6239L44.45 13.6861C44.1816 14.7632 43.8346 16.1552 42.7207 16.6234C43.5487 18.6618 44.0041 20.8725 44.0041 23.1935C44.0041 29.0115 41.6188 34.9973 39.48 40.3641L39.2635 40.9072C37.9649 44.1704 35.0591 46.4179 31.6922 47.0442L26.9349 47.9291C25.468 48.2019 24.0038 47.672 23.0477 46.6039C22.0917 47.672 20.6277 48.2019 19.1607 47.9291L14.4033 47.0442C11.0366 46.4179 8.13075 44.1704 6.83198 40.9072L6.61564 40.3641C4.47688 34.9973 2.09144 29.0115 2.09144 23.1935C2.09144 20.8725 2.54688 18.6618 3.37493 16.6234C2.25997 16.1547 1.92194 14.7965 1.65316 13.7165L1.6301 13.6239C0.672838 9.78946 0.488841 4.81915 2.31267 1.15916C2.71642 0.35055 3.6192 -0.11439 4.51081 0.0243125ZM11.6994 7.21928C9.33212 8.60463 7.27751 10.4189 5.68271 12.5512C5.05819 9.99793 5.05115 7.15844 5.60146 4.58986C7.72531 5.20421 9.80368 6.07524 11.6994 7.21928ZM40.4128 12.5513C38.8285 10.4328 36.7903 8.6283 34.4425 7.24646C36.3265 6.08603 38.3549 5.15636 40.4882 4.5626C41.0459 7.13842 41.0394 9.98968 40.4128 12.5513ZM16.4541 9.58311C18.4725 8.81905 20.7 8.39326 23.0477 8.39326C25.3957 8.39326 27.6231 8.81905 29.6414 9.58311C35.7376 11.8908 39.8128 17.2034 39.8128 23.1935C39.8128 28.2614 37.6943 33.5497 35.8024 38.2723C35.6567 38.636 35.5121 38.9967 35.3703 39.3532C34.6347 41.2014 32.9622 42.539 30.9267 42.9176L26.1694 43.8025L24.9589 41.1087C24.6205 40.3555 23.8724 39.8712 23.0477 39.8712C22.2231 39.8712 21.4752 40.3555 21.1367 41.1087L19.9261 43.8025L15.1688 42.9176C13.1334 42.539 11.4609 41.2014 10.7254 39.3532C10.5837 38.9971 10.4395 38.6372 10.294 38.274C8.40205 33.5514 6.28271 28.2614 6.28271 23.1935C6.28271 17.2034 10.3581 11.8908 16.4541 9.58311ZM19.9043 31.477C19.1104 31.477 18.3849 31.9261 18.0299 32.6371C17.6749 33.3481 17.7515 34.1988 18.2278 34.8347L21.3712 39.0317C21.7671 39.5602 22.388 39.8712 23.0477 39.8712C23.7074 39.8712 24.3284 39.5602 24.7242 39.0317L27.8677 34.8347C28.344 34.1988 28.4205 33.3481 28.0655 32.6371C27.7105 31.9261 26.985 31.477 26.1912 31.477H19.9043ZM18.0629 21.2389C18.0629 22.9775 16.6555 24.3867 14.9195 24.3867C13.1834 24.3867 11.776 22.9775 11.776 21.2389C11.776 19.5005 13.1834 18.0912 14.9195 18.0912C16.6555 18.0912 18.0629 19.5005 18.0629 21.2389ZM31.4303 24.1322C33.1663 24.1322 34.5737 22.723 34.5737 20.9844C34.5737 19.2459 33.1663 17.8366 31.4303 17.8366C29.6942 17.8366 28.2868 19.2459 28.2868 20.9844C28.2868 22.723 29.6942 24.1322 31.4303 24.1322Z" fill="black"/>
</svg>
